<svg aria-hidden="true" style="position:absolute;width:0;height:0;overflow:hidden" xmlns="http://www.w3.org/2000/svg">
    <defs>
        <symbol id="google-icon" viewBox="0 0 32 32">
            <path fill="#2196f3" style="fill:var(--color2, #2196f3)"
                d="M30.567 13.038c.136 0 .246.115.246.258V16c0 1.012-.09 2.002-.262 2.962C29.22 26.419 22.953 32.054 15.44 32 7.01 31.939.264 24.8.282 15.964.301 7.144 7.128 0 15.547 0c4.125 0 7.867 1.715 10.615 4.501a.267.267 0 0 1 .004.369l-3.65 3.826a.237.237 0 0 1-.342.005c-1.725-1.721-4.058-2.777-6.627-2.777-5.305 0-9.577 4.446-9.614 10.007-.036 5.597 4.282 10.146 9.614 10.146 4.326 0 7.985-2.995 9.191-7.115h-8.945a.252.252 0 0 1-.246-.258v-5.408c0-.142.11-.258.246-.258h14.774z" />
            <path fill="#1e88e5" style="fill:var(--color3, #1e88e5)"
                d="M30.567 13.038h-1.843c.136 0 .246.115.246.258V16c0 1.012-.09 2.002-.262 2.962-1.27 7.114-7.033 12.57-14.083 13.009.27.017.541.026.815.028 7.513.054 13.78-5.581 15.111-13.038.172-.96.262-1.95.262-2.962v-2.704a.252.252 0 0 0-.246-.258z" />
            <path fill="#f44336" style="fill:var(--color4, #f44336)"
                d="M6.815 11.78 2.179 8.269C4.78 3.338 9.792 0 15.547 0c4.125 0 7.867 1.715 10.615 4.501a.267.267 0 0 1 .004.369l-3.65 3.826a.237.237 0 0 1-.342.005c-1.724-1.721-4.058-2.777-6.627-2.777-3.872 0-7.209 2.399-8.732 5.857z" />
            <path fill="#e53935" style="fill:var(--color5, #e53935)"
                d="m5.477 10.767 1.338 1.014c1.39-3.156 4.292-5.429 7.732-5.802l.077-.009a9.336 9.336 0 0 0-.92-.046c-3.498 0-6.546 1.933-8.228 4.843zM24.319 4.501a.267.267 0 0 1 .004.369l-2.962 3.105c.284.226.555.468.813.726a.237.237 0 0 0 .342-.005l3.65-3.826a.267.267 0 0 0-.004-.369C23.414 1.715 19.672 0 15.547 0c-.31 0-.617.011-.922.03 3.759.235 7.152 1.894 9.694 4.471z" />
            <path fill="#4caf50" style="fill:var(--color6, #4caf50)"
                d="M26.745 26.874C23.957 30.027 19.972 32 15.547 32c-5.976 0-11.151-3.6-13.656-8.844l4.733-3.4c1.42 3.704 4.881 6.32 8.923 6.32 2.537 0 4.844-1.03 6.562-2.713l4.636 3.51z" />
            <path fill="#43a047" style="fill:var(--color7, #43a047)"
                d="m6.624 19.756-1.396 1.003c1.621 3.165 4.809 5.318 8.476 5.318a9.3 9.3 0 0 0 .919-.046c-3.64-.364-6.689-2.855-8-6.274zM15.547 32c4.425 0 8.41-1.973 11.198-5.126l-1.135-.86c-2.618 3.414-6.544 5.679-10.982 5.957.304.019.611.029.919.029z" />
            <path fill="#ffc107" style="fill:var(--color8, #ffc107)"
                d="M5.934 16c0 1.328.245 2.595.69 3.756l-4.733 3.4A16.55 16.55 0 0 1 .282 16c0-2.804.688-5.439 1.897-7.731l4.636 3.511A10.437 10.437 0 0 0 5.934 16z" />
            <path fill="#ffb300" style="fill:var(--color9, #ffb300)"
                d="m5.228 20.759 1.396-1.003A10.48 10.48 0 0 1 5.934 16c0-1.507.316-2.937.881-4.22l-1.338-1.014a10.437 10.437 0 0 0-1.386 5.164 10.437 10.437 0 0 0 1.137 4.829z" />
        </symbol>
        <symbol id="delete-icon" viewBox="0 0 32 32">
            <path fill="#52555f" style="fill:var(--color11, #52555f)"
                d="m28.992 7.153-.707-2.118a1.97 1.97 0 0 0-1.871-1.349h-5.938V1.753C20.476.787 19.69 0 18.724 0h-5.438c-.966 0-1.752.786-1.752 1.753v1.933H5.596c-.85 0-1.603.542-1.872 1.349l-.707 2.118A1.588 1.588 0 0 0 4.521 9.24h.739l1.625 20.1A2.908 2.908 0 0 0 9.767 32h12.804a2.909 2.909 0 0 0 2.882-2.66l1.625-20.1h.409c.508 0 .989-.246 1.286-.658s.379-.947.218-1.429zM13.41 1.875h5.191v1.811H13.41V1.875zm10.175 27.314a1.023 1.023 0 0 1-1.013.936H9.768c-.525 0-.97-.411-1.013-.936L7.141 9.24h18.056l-1.613 19.949zM4.924 7.365l.579-1.737a.098.098 0 0 1 .093-.067h20.818c.042 0 .079.027.093.067l.579 1.737H4.924z" />
            <path fill="#52555f" style="fill:var(--color11, #52555f)"
                d="M20.595 29.122a.937.937 0 0 0 .985-.888l.88-16.9a.938.938 0 0 0-1.872-.098l-.88 16.9a.937.937 0 0 0 .887.985zM10.473 28.237c.027.5.441.886.935.886l.052-.001a.937.937 0 0 0 .885-.987l-.922-16.9a.937.937 0 1 0-1.872.102l.922 16.9zM16.016 29.123c.518 0 .938-.42.938-.937v-16.9a.938.938 0 0 0-1.876 0v16.9c0 .518.42.937.938.937z" />
        </symbol>

        <symbol id="icon-logo" viewBox="0 0 93 32">
            <path fill="#fb7c2f" style="fill: var(--color1, #fb7c2f)"
                d="M14.452 5.161h17.548c4.561 0 8.258 3.697 8.258 8.258v10.323c0 4.561-3.697 8.258-8.258 8.258h-17.548c-4.561 0-8.258-3.697-8.258-8.258v-10.323c0-4.561 3.697-8.258 8.258-8.258z">
            </path>
            <path fill="#fb7c2f" style="fill: var(--color1, #fb7c2f)" opacity="0.2"
                d="M8.258 0h17.548c4.561 0 8.258 3.697 8.258 8.258v10.323c0 4.561-3.697 8.258-8.258 8.258h-17.548c-4.561 0-8.258-3.697-8.258-8.258v-10.323c0-4.561 3.697-8.258 8.258-8.258z">
            </path>
            <path fill="#000" style="fill: var(--color2, #000)"
                d="M23.88 21.234l1.327-1.456 2.857 4.995h3.834l-4.534-7.483 4.534-5.935h-3.999l-2.894 4.211-1.124 1.705v-5.916h-3.235v13.418h3.235v-3.539zM38.929 23.878c0.086 0.393 0.184 0.691 0.295 0.894h3.106v-0.157c-0.27-0.485-0.412-1.186-0.424-2.101v-4.414c-0.018-1.081-0.396-1.932-1.134-2.553s-1.742-0.931-3.013-0.931c-1.272 0-2.319 0.301-3.142 0.903-0.817 0.602-1.226 1.385-1.226 2.35h3.106c0-0.725 0.369-1.087 1.106-1.087 0.792 0 1.189 0.458 1.189 1.373v0.525h-0.958c-1.524 0-2.685 0.276-3.483 0.829s-1.198 1.37-1.198 2.451c0 0.86 0.329 1.576 0.986 2.147 0.657 0.565 1.456 0.848 2.396 0.848 1.026 0 1.825-0.359 2.396-1.078zM38.237 22.496c-0.252 0.166-0.571 0.249-0.958 0.249-0.295 0-0.538-0.086-0.728-0.258-0.19-0.178-0.286-0.409-0.286-0.691 0-0.971 0.541-1.456 1.622-1.456h0.903v1.594c-0.111 0.209-0.295 0.396-0.553 0.562zM52.89 19.861c0 1.548-0.35 2.786-1.051 3.714-0.694 0.922-1.634 1.382-2.82 1.382-0.915 0-1.668-0.335-2.258-1.005v4.654h-3.106v-13.805h2.903l0.092 0.922c0.596-0.737 1.379-1.106 2.35-1.106 1.229 0 2.184 0.455 2.866 1.364 0.682 0.903 1.023 2.147 1.023 3.732v0.148zM49.784 19.667c0-1.769-0.516-2.654-1.548-2.654-0.737 0-1.229 0.264-1.474 0.793v3.926c0.27 0.553 0.768 0.829 1.493 0.829 0.989 0 1.499-0.854 1.53-2.562v-0.332zM58.576 24.957c1.118 0 2.006-0.421 2.663-1.263l0.092 1.078h2.912v-9.971h-3.124v6.994c-0.301 0.51-0.808 0.765-1.521 0.765-0.829 0-1.244-0.427-1.244-1.281v-6.478h-3.106v6.46c0 1.192 0.28 2.107 0.839 2.746 0.565 0.633 1.395 0.949 2.488 0.949zM71.173 21.971c0-0.264-0.138-0.476-0.415-0.636s-0.802-0.326-1.576-0.498c-0.774-0.172-1.413-0.396-1.917-0.673-0.504-0.283-0.888-0.624-1.152-1.023s-0.396-0.857-0.396-1.373c0-0.915 0.378-1.668 1.134-2.258 0.635-0.5 1.434-0.791 2.397-0.871v-2.265h1.48v2.294c0.901 0.109 1.655 0.39 2.26 0.841 0.799 0.596 1.198 1.379 1.198 2.35h-3.115c0-0.799-0.421-1.198-1.262-1.198-0.326 0-0.599 0.092-0.82 0.276-0.221 0.178-0.332 0.402-0.332 0.673 0 0.276 0.135 0.501 0.405 0.673s0.7 0.313 1.29 0.424c0.596 0.111 1.118 0.243 1.567 0.396 1.499 0.516 2.249 1.441 2.249 2.774 0 0.909-0.405 1.65-1.216 2.221-0.605 0.43-1.346 0.698-2.223 0.804v2.274h-1.48v-2.245c-0.627-0.054-1.199-0.2-1.715-0.437-0.67-0.307-1.192-0.725-1.567-1.253s-0.562-1.084-0.562-1.668h2.903c0.012 0.461 0.166 0.799 0.461 1.014 0.295 0.209 0.673 0.313 1.133 0.313 0.424 0 0.74-0.086 0.949-0.258 0.215-0.172 0.323-0.396 0.323-0.673zM80.278 14.801v-2.479h-3.106v2.479h-1.272v2.156h1.272v4.949c0 1.026 0.255 1.791 0.765 2.295s1.299 0.756 2.368 0.756c0.608 0 1.192-0.089 1.751-0.267v-2.221c-0.209 0.037-0.467 0.055-0.774 0.055-0.399 0-0.667-0.074-0.802-0.221s-0.203-0.409-0.203-0.783v-4.562h1.64v-2.156h-1.64zM89.798 24.772c-0.111-0.203-0.209-0.501-0.295-0.894-0.571 0.719-1.37 1.078-2.396 1.078-0.94 0-1.739-0.283-2.396-0.848-0.657-0.571-0.986-1.287-0.986-2.147 0-1.081 0.399-1.898 1.198-2.451s1.96-0.829 3.483-0.829h0.958v-0.525c0-0.915-0.396-1.373-1.189-1.373-0.737 0-1.106 0.363-1.106 1.087h-3.106c0-0.965 0.408-1.748 1.226-2.35 0.823-0.602 1.871-0.903 3.142-0.903s2.276 0.31 3.013 0.931c0.737 0.62 1.115 1.471 1.133 2.553v4.414c0.012 0.915 0.154 1.616 0.424 2.101v0.157h-3.106zM87.853 22.745c0.387 0 0.706-0.083 0.958-0.249 0.258-0.166 0.442-0.353 0.553-0.562v-1.594h-0.903c-1.081 0-1.622 0.485-1.622 1.456 0 0.283 0.095 0.513 0.286 0.691 0.19 0.172 0.433 0.258 0.728 0.258z">
            </path>
        </symbol>


    </defs>
</svg>