<svg aria-hidden="true" style="position:absolute;width:0;height:0;overflow:hidden" xmlns="http://www.w3.org/2000/svg">
    <defs>
        <symbol id="google-icon" viewBox="0 0 32 32">
            <path fill="#2196f3" style="fill:var(--color2, #2196f3)"
                d="M30.567 13.038c.136 0 .246.115.246.258V16c0 1.012-.09 2.002-.262 2.962C29.22 26.419 22.953 32.054 15.44 32 7.01 31.939.264 24.8.282 15.964.301 7.144 7.128 0 15.547 0c4.125 0 7.867 1.715 10.615 4.501a.267.267 0 0 1 .004.369l-3.65 3.826a.237.237 0 0 1-.342.005c-1.725-1.721-4.058-2.777-6.627-2.777-5.305 0-9.577 4.446-9.614 10.007-.036 5.597 4.282 10.146 9.614 10.146 4.326 0 7.985-2.995 9.191-7.115h-8.945a.252.252 0 0 1-.246-.258v-5.408c0-.142.11-.258.246-.258h14.774z" />
            <path fill="#1e88e5" style="fill:var(--color3, #1e88e5)"
                d="M30.567 13.038h-1.843c.136 0 .246.115.246.258V16c0 1.012-.09 2.002-.262 2.962-1.27 7.114-7.033 12.57-14.083 13.009.27.017.541.026.815.028 7.513.054 13.78-5.581 15.111-13.038.172-.96.262-1.95.262-2.962v-2.704a.252.252 0 0 0-.246-.258z" />
            <path fill="#f44336" style="fill:var(--color4, #f44336)"
                d="M6.815 11.78 2.179 8.269C4.78 3.338 9.792 0 15.547 0c4.125 0 7.867 1.715 10.615 4.501a.267.267 0 0 1 .004.369l-3.65 3.826a.237.237 0 0 1-.342.005c-1.724-1.721-4.058-2.777-6.627-2.777-3.872 0-7.209 2.399-8.732 5.857z" />
            <path fill="#e53935" style="fill:var(--color5, #e53935)"
                d="m5.477 10.767 1.338 1.014c1.39-3.156 4.292-5.429 7.732-5.802l.077-.009a9.336 9.336 0 0 0-.92-.046c-3.498 0-6.546 1.933-8.228 4.843zM24.319 4.501a.267.267 0 0 1 .004.369l-2.962 3.105c.284.226.555.468.813.726a.237.237 0 0 0 .342-.005l3.65-3.826a.267.267 0 0 0-.004-.369C23.414 1.715 19.672 0 15.547 0c-.31 0-.617.011-.922.03 3.759.235 7.152 1.894 9.694 4.471z" />
            <path fill="#4caf50" style="fill:var(--color6, #4caf50)"
                d="M26.745 26.874C23.957 30.027 19.972 32 15.547 32c-5.976 0-11.151-3.6-13.656-8.844l4.733-3.4c1.42 3.704 4.881 6.32 8.923 6.32 2.537 0 4.844-1.03 6.562-2.713l4.636 3.51z" />
            <path fill="#43a047" style="fill:var(--color7, #43a047)"
                d="m6.624 19.756-1.396 1.003c1.621 3.165 4.809 5.318 8.476 5.318a9.3 9.3 0 0 0 .919-.046c-3.64-.364-6.689-2.855-8-6.274zM15.547 32c4.425 0 8.41-1.973 11.198-5.126l-1.135-.86c-2.618 3.414-6.544 5.679-10.982 5.957.304.019.611.029.919.029z" />
            <path fill="#ffc107" style="fill:var(--color8, #ffc107)"
                d="M5.934 16c0 1.328.245 2.595.69 3.756l-4.733 3.4A16.55 16.55 0 0 1 .282 16c0-2.804.688-5.439 1.897-7.731l4.636 3.511A10.437 10.437 0 0 0 5.934 16z" />
            <path fill="#ffb300" style="fill:var(--color9, #ffb300)"
                d="m5.228 20.759 1.396-1.003A10.48 10.48 0 0 1 5.934 16c0-1.507.316-2.937.881-4.22l-1.338-1.014a10.437 10.437 0 0 0-1.386 5.164 10.437 10.437 0 0 0 1.137 4.829z" />
        </symbol>
        <symbol id="delete-icon" viewBox="0 0 32 32">
            <path fill="#52555f" style="fill:var(--color11, #52555f)"
                d="m28.992 7.153-.707-2.118a1.97 1.97 0 0 0-1.871-1.349h-5.938V1.753C20.476.787 19.69 0 18.724 0h-5.438c-.966 0-1.752.786-1.752 1.753v1.933H5.596c-.85 0-1.603.542-1.872 1.349l-.707 2.118A1.588 1.588 0 0 0 4.521 9.24h.739l1.625 20.1A2.908 2.908 0 0 0 9.767 32h12.804a2.909 2.909 0 0 0 2.882-2.66l1.625-20.1h.409c.508 0 .989-.246 1.286-.658s.379-.947.218-1.429zM13.41 1.875h5.191v1.811H13.41V1.875zm10.175 27.314a1.023 1.023 0 0 1-1.013.936H9.768c-.525 0-.97-.411-1.013-.936L7.141 9.24h18.056l-1.613 19.949zM4.924 7.365l.579-1.737a.098.098 0 0 1 .093-.067h20.818c.042 0 .079.027.093.067l.579 1.737H4.924z" />
            <path fill="#52555f" style="fill:var(--color11, #52555f)"
                d="M20.595 29.122a.937.937 0 0 0 .985-.888l.88-16.9a.938.938 0 0 0-1.872-.098l-.88 16.9a.937.937 0 0 0 .887.985zM10.473 28.237c.027.5.441.886.935.886l.052-.001a.937.937 0 0 0 .885-.987l-.922-16.9a.937.937 0 1 0-1.872.102l.922 16.9zM16.016 29.123c.518 0 .938-.42.938-.937v-16.9a.938.938 0 0 0-1.876 0v16.9c0 .518.42.937.938.937z" />
        </symbol>

    </defs>
</svg>